<svg xmlns="http://www.w3.org/2000/svg" width="100" height="100" viewBox="0 0 100 100">
  <rect width="100" height="100" fill="none"/>
  
  <!-- Background decorations -->
  <circle cx="10" cy="10" r="4" fill="#FF6B9D" opacity="0.6"/>
  <circle cx="90" cy="10" r="3" fill="#FFD166" opacity="0.6"/>
  <circle cx="10" cy="90" r="5" fill="#5BCEFA" opacity="0.6"/>
  <circle cx="90" cy="90" r="4" fill="#9D65C9" opacity="0.6"/>
  
  <!-- Puzzle pieces -->
  <rect x="20" y="20" width="25" height="25" rx="5" fill="#9D65C9"/>
  <text x="32.5" y="37" font-family="Quicksand, sans-serif" font-size="16" fill="white" text-anchor="middle" font-weight="bold">+</text>
  
  <rect x="55" y="20" width="25" height="25" rx="5" fill="#FF6B9D"/>
  <text x="67.5" y="37" font-family="Quicksand, sans-serif" font-size="16" fill="white" text-anchor="middle" font-weight="bold">-</text>
  
  <rect x="20" y="55" width="25" height="25" rx="5" fill="#5BCEFA"/>
  <text x="32.5" y="72" font-family="Quicksand, sans-serif" font-size="16" fill="white" text-anchor="middle" font-weight="bold">×</text>
  
  <rect x="55" y="55" width="25" height="25" rx="5" fill="#FFD166"/>
  <text x="67.5" y="72" font-family="Quicksand, sans-serif" font-size="16" fill="white" text-anchor="middle" font-weight="bold">=</text>
  
  <!-- Decorative elements -->
  <path d="M15,40 l2,6 l6,0 l-5,4 l2,6 l-5,-4 l-5,4 l2,-6 l-5,-4 l6,0 z" fill="#FFD166" transform="scale(0.6)"/>
  <path d="M85,40 l2,6 l6,0 l-5,4 l2,6 l-5,-4 l-5,4 l2,-6 l-5,-4 l6,0 z" fill="#FFD166" transform="scale(0.6)"/>
  
  <!-- Sparkles -->
  <circle cx="50" cy="15" r="1.5" fill="#FFD166"/>
  <circle cx="50" cy="85" r="1.5" fill="#FFD166"/>
  <circle cx="15" cy="50" r="1.5" fill="#FFD166"/>
  <circle cx="85" cy="50" r="1.5" fill="#FFD166"/>
  
  <!-- Connecting lines -->
  <line x1="45" y1="32.5" x2="55" y2="32.5" stroke="#5BCEFA" stroke-width="2" stroke-dasharray="2,2"/>
  <line x1="45" y1="67.5" x2="55" y2="67.5" stroke="#5BCEFA" stroke-width="2" stroke-dasharray="2,2"/>
  <line x1="32.5" y1="45" x2="32.5" y2="55" stroke="#5BCEFA" stroke-width="2" stroke-dasharray="2,2"/>
  <line x1="67.5" y1="45" x2="67.5" y2="55" stroke="#5BCEFA" stroke-width="2" stroke-dasharray="2,2"/>
</svg> 